<svg xmlns="http://www.w3.org/2000/svg" xmlns:xlink="http://www.w3.org/1999/xlink" version="1.1" x="0px" y="0px" viewBox="0 0 32 40" enable-background="new 0 0 32 32" xml:space="preserve"><g><g><path fill="#000000" d="M31.3,29.4H0.8V8.5h30.5V29.4z M2.3,27.9h27.5V10H2.3V27.9z"/></g><g><path fill="#000000" d="M11.3,25.5l0.9-5.3l-3.8-3.7l5.3-0.8l2.4-4.8l2.4,4.8l5.3,0.8L20,20.2l0.9,5.3L16,23L11.3,25.5z M16,21.3    l2.8,1.4l-0.5-3.1l2.2-2.2L17.4,17L16,14.3l-1.4,2.8l-3.1,0.4l2.2,2.2l-0.5,3.1L16,21.3z"/></g><g><path fill="#000000" d="M31.3,10H0.8V2.6h30.5V10z M2.3,8.5h27.5V4.1H2.3V8.5z"/></g><g><rect x="18.6" y="5.6" fill="#000000" width="1.3" height="1.5"/></g><g><rect x="22.2" y="5.6" fill="#000000" width="1.3" height="1.5"/></g><g><rect x="25.7" y="5.6" fill="#000000" width="1.3" height="1.5"/></g></g><text x="0" y="47" fill="#000000" font-size="5px" font-weight="bold" font-family="'Helvetica Neue', Helvetica, Arial-Unicode, Arial, Sans-serif">Created by Creative Stall</text><text x="0" y="52" fill="#000000" font-size="5px" font-weight="bold" font-family="'Helvetica Neue', Helvetica, Arial-Unicode, Arial, Sans-serif">from the Noun Project</text></svg>